<?xml version="1.0" encoding="iso-8859-1"?>
<!-- Generator: Adobe Illustrator 19.0.0, SVG Export Plug-In . SVG Version: 6.00 Build 0)  -->
<svg xmlns="http://www.w3.org/2000/svg" xmlns:xlink="http://www.w3.org/1999/xlink" version="1.1" id="Capa_1" x="0px" y="0px" viewBox="0 0 512 512" style="enable-background:new 0 0 512 512;" xml:space="preserve" width="512px" height="512px">
<g>
	<g>
		<path d="M110.076,159.613c-13.039,8.313-26.068,17.644-39.008,27.968C37.099,214.684,11.942,242.108,0,256    c11.94,13.89,37.099,41.316,71.068,68.419c12.94,10.325,25.969,19.654,39.008,27.968C91.746,324.731,81.052,291.593,81.052,256    S91.746,187.27,110.076,159.613z" fill="#FFFFFF"/>
	</g>
</g>
<g>
	<g>
		<path d="M440.932,187.581c-12.94-10.325-25.969-19.654-39.008-27.968c18.33,27.658,29.023,60.795,29.023,96.388    s-10.694,68.73-29.023,96.387c13.039-8.313,26.068-17.644,39.008-27.968C474.903,297.316,500.059,269.892,512,256    C500.058,242.108,474.901,214.684,440.932,187.581z" fill="#FFFFFF"/>
	</g>
</g>
<g>
	<g>
		<path d="M256,111.555c-79.775,0-144.445,64.67-144.445,144.445S176.225,400.445,256,400.445S400.445,335.775,400.445,256    S335.775,111.555,256,111.555z M256,337.907c-45.163,0-81.907-36.743-81.907-81.907c0-45.163,36.743-81.907,81.907-81.907    s81.907,36.743,81.907,81.907C337.907,301.163,301.163,337.907,256,337.907z" fill="#FFFFFF"/>
	</g>
</g>
<g>
	<g>
		<path d="M256,204.535c-28.378,0-51.466,23.088-51.466,51.466c0,28.378,23.087,51.466,51.466,51.466    c28.378,0,51.466-23.087,51.466-51.466S284.378,204.535,256,204.535z" fill="#FFFFFF"/>
	</g>
</g>
<g>
	<g>
		<path d="M294.449,23.15l-4.926,30.039c45.107,7.399,87.049,30.15,118.102,64.061l22.45-20.558    C394.433,57.767,346.266,31.649,294.449,23.15z" fill="#FFFFFF"/>
	</g>
</g>
<g>
	<g>
		<path d="M217.552,23.152c-51.817,8.498-99.984,34.615-135.626,73.542l22.45,20.558c31.052-33.913,72.995-56.664,118.102-64.061    L217.552,23.152z" fill="#FFFFFF"/>
	</g>
</g>
<g>
	<g>
		<path d="M407.624,394.747c-31.052,33.914-72.995,56.664-118.102,64.061l4.926,30.039c51.817-8.497,99.984-34.615,135.627-73.542    L407.624,394.747z" fill="#FFFFFF"/>
	</g>
</g>
<g>
	<g>
		<path d="M104.375,394.749l-22.451,20.558c35.643,38.927,83.81,65.045,135.627,73.542l4.926-30.039    C177.371,451.411,135.428,428.662,104.375,394.749z" fill="#FFFFFF"/>
	</g>
</g>
<g>
</g>
<g>
</g>
<g>
</g>
<g>
</g>
<g>
</g>
<g>
</g>
<g>
</g>
<g>
</g>
<g>
</g>
<g>
</g>
<g>
</g>
<g>
</g>
<g>
</g>
<g>
</g>
<g>
</g>
</svg>
